<?xml version="1.0" standalone="no"?>
<!DOCTYPE svg PUBLIC "-//W3C//DTD SVG 20010904//EN"
 "http://www.w3.org/TR/2001/REC-SVG-20010904/DTD/svg10.dtd">
<svg version="1.0" xmlns="http://www.w3.org/2000/svg"
 width="1280.000000pt" height="1280.000000pt" viewBox="0 0 1280.000000 1280.000000"
 preserveAspectRatio="xMidYMid meet">
<g transform="translate(0.000000,1280.000000) scale(0.100000,-0.100000)"
fill="#000000" stroke="none">
<path d="M6225 11140 c-540 -28 -1088 -163 -1659 -408 -302 -130 -537 -263
-796 -452 -508 -370 -899 -783 -1215 -1285 -407 -645 -633 -1303 -706 -2060
-41 -428 4 -1067 107 -1510 139 -598 423 -1195 809 -1702 183 -240 532 -610
743 -786 408 -342 928 -633 1450 -811 540 -184 1258 -284 1767 -247 859 63
1551 289 2250 734 357 228 718 538 960 827 39 46 93 109 121 139 143 158 433
600 564 861 126 252 272 648 344 938 97 390 136 712 136 1137 0 310 -19 546
-66 800 -106 582 -268 1016 -580 1557 -264 457 -649 902 -1074 1243 -729 584
-1574 925 -2515 1014 -152 15 -461 20 -640 11z m410 -1060 c285 -15 500 -49
780 -126 512 -140 1012 -407 1395 -745 210 -185 399 -391 497 -539 38 -58 76
-116 86 -130 108 -156 246 -397 340 -597 144 -307 227 -609 283 -1028 24 -174
23 -635 0 -810 -51 -380 -134 -682 -288 -1045 -210 -496 -658 -1069 -1083
-1384 -44 -33 -96 -72 -115 -86 -101 -76 -326 -207 -515 -300 -451 -221 -879
-326 -1445 -355 -125 -7 -446 13 -575 35 -395 67 -465 83 -680 155 -198 66
-514 207 -615 274 -8 6 -40 25 -70 42 -223 129 -437 296 -644 503 -228 228
-343 364 -494 586 -253 370 -440 809 -517 1215 -14 77 -30 158 -35 180 -5 22
-14 99 -20 170 -6 72 -15 177 -20 235 -24 252 2 608 66 910 90 427 252 821
492 1201 58 92 132 193 278 379 60 76 311 326 409 408 297 248 515 386 810
517 450 200 894 312 1325 334 80 5 150 9 155 9 6 1 96 -3 200 -8z"/>
<path d="M5055 8634 c-95 -29 -159 -68 -230 -139 -75 -75 -106 -125 -136 -220
-18 -58 -19 -119 -19 -1698 0 -1612 0 -1639 20 -1697 61 -180 170 -289 352
-351 56 -18 102 -19 1783 -19 l1725 0 0 1810 0 1810 -129 0 c-108 0 -130 -3
-135 -16 -3 -9 -6 -762 -6 -1675 l0 -1659 -1571 0 -1570 0 -52 25 c-58 28 -76
42 -95 70 -74 116 -66 240 23 328 82 83 -36 77 1574 77 1097 0 1430 3 1439 12
17 17 17 3329 0 3346 -9 9 -348 12 -1467 11 -1274 0 -1462 -2 -1506 -15z"/>
</g>
</svg>
